<svg width="226" height="37" viewBox="0 0 226 37" fill="none" xmlns="http://www.w3.org/2000/svg">
<path d="M70.2618 18.0055C68.9381 18.0055 67.8372 18.4365 66.9594 19.305C66.0815 20.1734 65.6426 21.2799 65.6426 22.6373C65.6426 24.0011 66.0885 25.1205 66.9803 26.0018C67.8721 26.8832 68.9729 27.3206 70.2758 27.3206C71.6204 27.3206 72.7421 26.8896 73.627 26.0211C74.5118 25.1591 74.9577 24.0204 74.9577 22.618C74.9577 21.2478 74.5118 20.1348 73.627 19.2792C72.7421 18.4301 71.6204 18.0055 70.2618 18.0055Z" fill="#2AB0C5"/>
<path d="M50.5098 13.6872V27.6872H47.2698V21.9472H40.9098V27.6872H37.6698V13.6872H40.9098V19.2072H47.2698V13.6872H50.5098ZM59.0221 25.3472C59.5821 25.3472 60.0754 25.2672 60.5021 25.1072C60.9421 24.9339 61.3488 24.6672 61.7221 24.3072L63.3821 26.1072C62.3688 27.2672 60.8888 27.8472 58.9421 27.8472C57.7288 27.8472 56.6554 27.6139 55.7221 27.1472C54.7888 26.6672 54.0688 26.0072 53.5621 25.1672C53.0554 24.3272 52.8021 23.3739 52.8021 22.3072C52.8021 21.2539 53.0488 20.3072 53.5421 19.4672C54.0488 18.6139 54.7354 17.9539 55.6021 17.4872C56.4821 17.0072 57.4688 16.7672 58.5621 16.7672C59.5888 16.7672 60.5221 16.9872 61.3621 17.4272C62.2021 17.8539 62.8688 18.4806 63.3621 19.3072C63.8688 20.1206 64.1221 21.0872 64.1221 22.2072L56.1621 23.7472C56.3888 24.2806 56.7421 24.6806 57.2221 24.9472C57.7154 25.2139 58.3154 25.3472 59.0221 25.3472ZM58.5621 19.1272C57.7754 19.1272 57.1354 19.3806 56.6421 19.8872C56.1488 20.3939 55.8888 21.0939 55.8621 21.9872L61.1021 20.9672C60.9554 20.4072 60.6554 19.9606 60.2021 19.6272C59.7488 19.2939 59.2021 19.1272 58.5621 19.1272ZM77.1393 16.9272V27.6872H74.1593V26.4472C73.386 27.3806 72.266 27.8472 70.7993 27.8472C69.786 27.8472 68.866 27.6206 68.0393 27.1672C67.226 26.7139 66.586 26.0672 66.1193 25.2272C65.6526 24.3872 65.4193 23.4139 65.4193 22.3072C65.4193 21.2006 65.6526 20.2272 66.1193 19.3872C66.586 18.5472 67.226 17.9006 68.0393 17.4472C68.866 16.9939 69.786 16.7672 70.7993 16.7672C72.1726 16.7672 73.246 17.2006 74.0193 18.0672V16.9272H77.1393ZM71.3393 25.2872C72.126 25.2872 72.7793 25.0206 73.2993 24.4872C73.8193 23.9406 74.0793 23.2139 74.0793 22.3072C74.0793 21.4006 73.8193 20.6806 73.2993 20.1472C72.7793 19.6006 72.126 19.3272 71.3393 19.3272C70.5393 19.3272 69.8793 19.6006 69.3593 20.1472C68.8393 20.6806 68.5793 21.4006 68.5793 22.3072C68.5793 23.2139 68.8393 23.9406 69.3593 24.4872C69.8793 25.0206 70.5393 25.2872 71.3393 25.2872ZM83.8879 27.8472C82.6746 27.8472 81.7279 27.5272 81.0479 26.8872C80.3679 26.2339 80.0279 25.3139 80.0279 24.1272V12.8472H83.1479V23.9472C83.1479 24.4006 83.2612 24.7539 83.4879 25.0072C83.7279 25.2472 84.0612 25.3672 84.4879 25.3672C84.6479 25.3672 84.8079 25.3472 84.9679 25.3072C85.1412 25.2672 85.2746 25.2206 85.3679 25.1672L85.5079 27.5872C84.9879 27.7606 84.4479 27.8472 83.8879 27.8472ZM93.5196 27.1672C93.2129 27.3939 92.8329 27.5672 92.3796 27.6872C91.9396 27.7939 91.4796 27.8472 90.9996 27.8472C89.7063 27.8472 88.7129 27.5206 88.0196 26.8672C87.3263 26.2139 86.9796 25.2539 86.9796 23.9872V14.5472H90.0996V17.1672H92.7596V19.5672H90.0996V23.9472C90.0996 24.4006 90.2129 24.7539 90.4396 25.0072C90.6663 25.2472 90.9929 25.3672 91.4196 25.3672C91.8996 25.3672 92.3263 25.2339 92.6996 24.9672L93.5196 27.1672ZM101.822 16.7672C103.155 16.7672 104.228 17.1672 105.042 17.9672C105.868 18.7672 106.282 19.9539 106.282 21.5272V27.6872H103.162V22.0072C103.162 21.1539 102.975 20.5206 102.602 20.1072C102.228 19.6806 101.688 19.4672 100.982 19.4672C100.195 19.4672 99.5685 19.7139 99.1018 20.2072C98.6351 20.6872 98.4018 21.4072 98.4018 22.3672V27.6872H95.2818V12.8472H98.4018V18.0472C98.8151 17.6339 99.3151 17.3206 99.9018 17.1072C100.488 16.8806 101.128 16.7672 101.822 16.7672ZM122.79 13.6872L116.73 27.6872H113.53L107.49 13.6872H110.99L115.25 23.6872L119.57 13.6872H122.79ZM133.858 16.9272V27.6872H130.878V26.4472C130.105 27.3806 128.985 27.8472 127.518 27.8472C126.505 27.8472 125.585 27.6206 124.758 27.1672C123.945 26.7139 123.305 26.0672 122.838 25.2272C122.371 24.3872 122.138 23.4139 122.138 22.3072C122.138 21.2006 122.371 20.2272 122.838 19.3872C123.305 18.5472 123.945 17.9006 124.758 17.4472C125.585 16.9939 126.505 16.7672 127.518 16.7672C128.891 16.7672 129.965 17.2006 130.738 18.0672V16.9272H133.858ZM128.058 25.2872C128.845 25.2872 129.498 25.0206 130.018 24.4872C130.538 23.9406 130.798 23.2139 130.798 22.3072C130.798 21.4006 130.538 20.6806 130.018 20.1472C129.498 19.6006 128.845 19.3272 128.058 19.3272C127.258 19.3272 126.598 19.6006 126.078 20.1472C125.558 20.6806 125.298 21.4006 125.298 22.3072C125.298 23.2139 125.558 23.9406 126.078 24.4872C126.598 25.0206 127.258 25.2872 128.058 25.2872ZM143.287 16.7672C144.62 16.7672 145.693 17.1672 146.507 17.9672C147.333 18.7672 147.747 19.9539 147.747 21.5272V27.6872H144.627V22.0072C144.627 21.1539 144.44 20.5206 144.067 20.1072C143.693 19.6806 143.153 19.4672 142.447 19.4672C141.66 19.4672 141.033 19.7139 140.567 20.2072C140.1 20.6872 139.867 21.4072 139.867 22.3672V27.6872H136.747V16.9272H139.727V18.1872C140.14 17.7339 140.653 17.3872 141.267 17.1472C141.88 16.8939 142.553 16.7672 143.287 16.7672ZM161.652 12.8472V27.6872H158.672V26.4472C157.899 27.3806 156.779 27.8472 155.312 27.8472C154.299 27.8472 153.379 27.6206 152.552 27.1672C151.739 26.7139 151.099 26.0672 150.632 25.2272C150.165 24.3872 149.932 23.4139 149.932 22.3072C149.932 21.2006 150.165 20.2272 150.632 19.3872C151.099 18.5472 151.739 17.9006 152.552 17.4472C153.379 16.9939 154.299 16.7672 155.312 16.7672C156.685 16.7672 157.759 17.2006 158.532 18.0672V12.8472H161.652ZM155.852 25.2872C156.639 25.2872 157.292 25.0206 157.812 24.4872C158.332 23.9406 158.592 23.2139 158.592 22.3072C158.592 21.4006 158.332 20.6806 157.812 20.1472C157.292 19.6006 156.639 19.3272 155.852 19.3272C155.052 19.3272 154.392 19.6006 153.872 20.1472C153.352 20.6806 153.092 21.4006 153.092 22.3072C153.092 23.2139 153.352 23.9406 153.872 24.4872C154.392 25.0206 155.052 25.2872 155.852 25.2872ZM175.46 16.9272V27.6872H172.48V26.4472C171.706 27.3806 170.586 27.8472 169.12 27.8472C168.106 27.8472 167.186 27.6206 166.36 27.1672C165.546 26.7139 164.906 26.0672 164.44 25.2272C163.973 24.3872 163.74 23.4139 163.74 22.3072C163.74 21.2006 163.973 20.2272 164.44 19.3872C164.906 18.5472 165.546 17.9006 166.36 17.4472C167.186 16.9939 168.106 16.7672 169.12 16.7672C170.493 16.7672 171.566 17.2006 172.34 18.0672V16.9272H175.46ZM169.66 25.2872C170.446 25.2872 171.1 25.0206 171.62 24.4872C172.14 23.9406 172.4 23.2139 172.4 22.3072C172.4 21.4006 172.14 20.6806 171.62 20.1472C171.1 19.6006 170.446 19.3272 169.66 19.3272C168.86 19.3272 168.2 19.6006 167.68 20.1472C167.16 20.6806 166.9 21.4006 166.9 22.3072C166.9 23.2139 167.16 23.9406 167.68 24.4872C168.2 25.0206 168.86 25.2872 169.66 25.2872ZM184.888 16.7672C186.222 16.7672 187.295 17.1672 188.108 17.9672C188.935 18.7672 189.348 19.9539 189.348 21.5272V27.6872H186.228V22.0072C186.228 21.1539 186.042 20.5206 185.668 20.1072C185.295 19.6806 184.755 19.4672 184.048 19.4672C183.262 19.4672 182.635 19.7139 182.168 20.2072C181.702 20.6872 181.468 21.4072 181.468 22.3672V27.6872H178.348V16.9272H181.328V18.1872C181.742 17.7339 182.255 17.3872 182.868 17.1472C183.482 16.8939 184.155 16.7672 184.888 16.7672ZM203.214 16.9272V27.6872H200.234V26.4472C199.46 27.3806 198.34 27.8472 196.874 27.8472C195.86 27.8472 194.94 27.6206 194.114 27.1672C193.3 26.7139 192.66 26.0672 192.194 25.2272C191.727 24.3872 191.494 23.4139 191.494 22.3072C191.494 21.2006 191.727 20.2272 192.194 19.3872C192.66 18.5472 193.3 17.9006 194.114 17.4472C194.94 16.9939 195.86 16.7672 196.874 16.7672C198.247 16.7672 199.32 17.2006 200.094 18.0672V16.9272H203.214ZM197.414 25.2872C198.2 25.2872 198.854 25.0206 199.374 24.4872C199.894 23.9406 200.154 23.2139 200.154 22.3072C200.154 21.4006 199.894 20.6806 199.374 20.1472C198.854 19.6006 198.2 19.3272 197.414 19.3272C196.614 19.3272 195.954 19.6006 195.434 20.1472C194.914 20.6806 194.654 21.4006 194.654 22.3072C194.654 23.2139 194.914 23.9406 195.434 24.4872C195.954 25.0206 196.614 25.2872 197.414 25.2872ZM219.882 16.7672C221.229 16.7672 222.295 17.1672 223.082 17.9672C223.882 18.7539 224.282 19.9406 224.282 21.5272V27.6872H221.162V22.0072C221.162 21.1539 220.982 20.5206 220.622 20.1072C220.275 19.6806 219.775 19.4672 219.122 19.4672C218.389 19.4672 217.809 19.7072 217.382 20.1872C216.955 20.6539 216.742 21.3539 216.742 22.2872V27.6872H213.622V22.0072C213.622 20.3139 212.942 19.4672 211.582 19.4672C210.862 19.4672 210.289 19.7072 209.862 20.1872C209.435 20.6539 209.222 21.3539 209.222 22.2872V27.6872H206.102V16.9272H209.082V18.1672C209.482 17.7139 209.969 17.3672 210.542 17.1272C211.129 16.8872 211.769 16.7672 212.462 16.7672C213.222 16.7672 213.909 16.9206 214.522 17.2272C215.135 17.5206 215.629 17.9539 216.002 18.5272C216.442 17.9672 216.995 17.5339 217.662 17.2272C218.342 16.9206 219.082 16.7672 219.882 16.7672Z" fill="#292F6D"/>
<path d="M13.8092 8.97005C16.2863 8.97005 18.2943 6.96203 18.2943 4.48502C18.2943 2.00801 16.2863 0 13.8092 0C11.3322 0 9.32422 2.00801 9.32422 4.48502C9.32422 6.96203 11.3322 8.97005 13.8092 8.97005Z" fill="#2AB0C5"/>
<path d="M26.1676 14.6529C26.1676 14.6529 23.0633 30.8258 13.8125 36.9028C13.8125 36.9054 29.2666 36.0063 26.1676 14.6529Z" fill="#2AB0C5"/>
<path d="M1.45373 14.6529C1.45373 14.6529 4.55795 30.8258 13.8088 36.9028C13.8088 36.9054 -1.64535 36.0063 1.45373 14.6529Z" fill="#2AB0C5"/>
<path d="M4.50563 13.4298C6.41454 13.4247 7.9293 15.0476 7.9293 16.9565V24.2186C7.9293 27.0034 8.97262 29.7109 10.9305 31.6919C11.3916 32.1582 11.8733 32.6013 12.3731 33.0135C12.3963 33.0032 12.4014 33.0006 12.4246 32.9903V25.1228H15.1991V32.9903C15.2223 33.0006 15.2274 33.0032 15.2506 33.0135C15.753 32.6013 16.2321 32.1582 16.6933 31.6919C18.6511 29.7109 19.6944 27.0034 19.6944 24.2186V16.9565C19.6944 15.0476 21.2092 13.4247 23.1181 13.4298C25.6066 13.4376 27.6237 11.423 27.6237 8.93707H22.6827C18.5481 8.93707 15.1991 12.286 15.1991 16.4207V17.4615V20.6198H12.422V17.4615V16.4207C12.422 12.2886 9.07052 8.93707 4.93842 8.93707H0C0 11.423 2.01968 13.435 4.50563 13.4298Z" fill="#292F6D"/>
</svg>
